<?xml version="1.0" encoding="iso-8859-1"?>
<!-- Generator: Adobe Illustrator 16.0.0, SVG Export Plug-In . SVG Version: 6.00 Build 0)  -->
<!DOCTYPE svg PUBLIC "-//W3C//DTD SVG 1.1//EN" "http://www.w3.org/Graphics/SVG/1.1/DTD/svg11.dtd">
<svg version="1.1" id="Capa_1" xmlns="http://www.w3.org/2000/svg" xmlns:xlink="http://www.w3.org/1999/xlink" x="0px" y="0px"
	 width="533.333px" height="533.334px" viewBox="0 0 533.333 533.334" style="enable-background:new 0 0 533.333 533.334;"
	 xml:space="preserve">
<g>
	<path d="M433.333,66.667H100c-55,0-100,45-100,100v200c0,54.999,45,100,100,100h333.333c54.999,0,100-45.001,100-100v-200
		C533.333,111.667,488.333,66.667,433.333,66.667z M500,366.667c0,17.696-6.966,34.407-19.611,47.055
		c-12.647,12.646-29.356,19.611-47.055,19.611H100c-17.697,0-34.407-6.966-47.054-19.611
		c-12.647-12.647-19.613-29.358-19.613-47.055v-200c0-17.697,6.966-34.407,19.613-47.054C65.593,106.966,82.303,100,100,100h333.333
		c17.697,0,34.407,6.966,47.055,19.613C493.036,132.259,500,148.97,500,166.667V366.667z M200,400l166.667-133.333L200,133.333V400z
		"/>
</g>
<g>
</g>
<g>
</g>
<g>
</g>
<g>
</g>
<g>
</g>
<g>
</g>
<g>
</g>
<g>
</g>
<g>
</g>
<g>
</g>
<g>
</g>
<g>
</g>
<g>
</g>
<g>
</g>
<g>
</g>
</svg>
